<?xml version="1.0" encoding="UTF-8" standalone="yes"?>
<!-- Created with sK1/UniConvertor (http://sk1project.org/) -->
<svg xmlns="http://www.w3.org/2000/svg" xmlns:xlink="http://www.w3.org/1999/xlink"
  width="960pt" height="540pt" viewBox="-210 430 960 540"
  fill-rule="evenodd">
<g>
<path style="stroke:none; fill:white" d="M 423.986 674.89C 424.478 676.419 425.435 678.518 424.863 679.505C 424.208 680.635 419.199 682.089 417.691 682.444C 411.404 683.922 403.156 685.724 401.009 685.724C 401.369 684.194 405.736 674.557 406.155 673.147C 409.913 660.507 412.134 664.438 410.483 658.225C 400.474 641.48 401.953 665.405 399.447 672.771C 395.249 685.112 393.939 686.31 387.459 690.333C 386.393 690.995 385.332 693.782 385.796 694.658C 386.487 695.963 388.524 697.106 390.011 697.123C 392.584 697.153 395.209 696.414 397.751 695.732C 403.325 694.236 408.331 690.647 413.755 689.323C 420.692 687.629 426.117 687.848 429.33 692.726C 430.457 694.437 429.126 697.124 436.69 695.417C 439.983 694.674 440.497 687.364 434.556 679.269C 431.223 674.728 424.082 667.102 423.379 667.574C 422.652 668.061 422.096 669.669 422.251 670.637C 422.487 672.118 423.514 673.426 423.986 674.89z"/>
<path style="stroke:none; fill:white" d="M 482.439 697.704C 479.043 694.056 476.051 689.952 473.115 685.856C 468.745 679.76 464.623 673.462 460.254 667.366C 459.711 666.608 456.204 668.375 456.337 669.363C 456.54 670.872 457.279 672.318 457.912 673.728C 461.425 681.551 464.928 689.38 468.535 697.153C 469.819 699.92 469.914 701.705 466.845 703.493C 451.401 712.488 434.322 712.102 417.765 712.791C 407.619 713.213 397.311 709.781 387.171 707.598C 381.019 706.274 377.745 700.942 378.471 695C 379.047 690.293 381.301 664.035 382.805 656.955C 384.309 649.875 390.819 646.906 383.91 645.927C 382.036 645.661 380.501 645.607 379.227 645.728C 386.222 643.117 391.475 641.199 392.56 640.815C 396.039 639.581 398.061 638.748 399.022 640.819C 399.771 642.435 398.467 648.282 399.799 650.577C 401.429 653.386 408.836 649.721 410.476 646.578C 413.108 641.536 413.34 637.182 412.158 633.443C 410.066 626.825 410.086 620.531 410.569 613.83C 411.43 601.864 411.001 589.713 419.298 579.758C 421.959 576.565 420.434 573.519 416.345 573.647C 413.832 573.726 411.286 574.895 408.859 575.875C 407.192 576.548 405.786 577.96 404.125 578.658C 394.054 582.886 383.891 586.861 373.866 591.209C 367.687 593.888 368.002 593.801 371.665 599.727C 373.271 602.323 373.858 611.088 372.804 613.345C 371.619 615.881 367.337 617.334 363.551 617.893C 363.694 612.484 363.867 611.42 363.739 606.939C 363.611 602.488 362.59 593.084 360.027 590.719C 354.722 585.823 351.098 586.232 345.543 588.56C 345.303 589.129 344.88 590.864 344.64 591.433C 346.354 592.469 353.637 598.367 354.404 604.179C 355.579 614.275 354.345 628.057 353.94 637.697C 353.535 647.314 353.947 644.875 328.429 654.506C 327.346 654.915 325.74 656.152 325.743 656.989C 325.746 658.301 326.624 660.158 327.661 660.759C 328.944 661.502 334.406 663.615 335.797 662.958C 343.676 659.242 361.733 652.293 375.421 647.153C 372.378 649.851 373.686 655.935 373.396 663.051C 371.982 674.085 370.837 685.16 369.859 696.244C 369.009 705.882 369.163 708.998 376.403 713.516C 385.055 718.916 394.332 721.598 404.092 721.889C 417.904 722.302 431.924 723.197 445.532 721.2C 458.991 719.225 473.569 717.729 482.7 703.738C 484.421 701.101 484.561 699.984 482.439 697.704zM 380.867 629.775C 381.749 620.763 379.66 619.041 387.46 617.9C 389.616 617.585 392.939 617.576 394.483 616.042C 395.494 615.037 396.204 613.391 394.791 609.913C 393.256 608.02 391.905 608.296 390.47 608.326C 388.101 608.375 384.232 611.32 382.367 610.502C 381.105 609.948 381.598 605.092 381.648 602.744C 381.824 594.434 380.169 594.474 387.64 591.431C 391.463 589.874 395.44 588.749 399.362 587.485C 403.115 586.275 404.794 587.452 403.822 591.856C 403.408 593.733 403.332 595.69 403.101 597.611C 403.039 597.609 402.978 597.608 402.916 597.607C 402.639 605.95 402.426 614.296 402.06 622.635C 401.881 626.734 400.72 630.187 396.34 631.43C 392.064 632.643 387.89 634.274 383.629 635.554C 380.967 636.354 380.322 635.349 380.867 629.775zM 374.932 631.286C 374.665 637.661 373.261 638.935 366.006 641.241C 363.147 642.256 361.29 644.255 361.29 640.242C 361.291 635.998 360.893 629.524 362.839 626.308C 364.739 623.166 368.666 623.792 372.885 621.991C 375.42 620.908 374.932 626.919 374.932 631.286z"/>
<path style="stroke:none; fill:white" d="M 247.227 667.181C 253.857 668.801 260.245 669.064 266.926 665.645C 274.137 661.954 282.075 659.933 289.595 656.895C 295.566 654.483 293.269 655.53 297.882 653.362C 298.596 653.161 299.449 653.161 299.782 654.451C 300.115 655.742 298.951 663.271 298.024 667.56C 297.02 672.205 295.57 676.771 293.982 681.241C 293.197 683.449 291.719 685.401 290.456 687.398C 288.527 690.45 286.356 693.345 284.626 696.514C 284.097 697.484 284.234 699.562 284.89 700.342C 285.447 701.003 287.491 701.038 288.363 700.461C 292.394 697.793 300.189 691.999 300.189 691.999C 300.189 691.999 308.941 684.468 319.256 677.542C 320.345 676.797 321.836 676.057 323.149 675.385C 324.43 677.397 325.774 679.369 327.105 681.339C 332.78 689.195 337.924 688.445 338.255 682.991C 338.826 682.299 337.65 679.192 336.548 677.867C 332.655 673.184 328.555 668.679 324.304 664.361C 322.892 662.926 320.828 659.679 318.848 663.05C 317.973 664.542 318.914 667.867 319.922 669.835C 320.345 670.662 320.804 671.47 321.267 672.275C 316.323 673.929 306.047 678.536 304.527 679.232C 302.688 680.072 303.359 673.269 303.634 672.048C 305.179 665.218 306.667 658.362 308.587 651.645C 309.181 649.57 310.72 647.274 312.438 646.176C 316.508 643.572 320.894 641.499 325.255 639.466C 327.422 638.456 329.807 637.969 332.11 637.316C 335.349 636.397 338.687 635.794 341.83 634.593C 345.061 633.358 346.978 630.13 345.337 627.127C 344.489 625.574 340.396 624.883 338.235 625.556C 332.875 627.226 327.535 629.414 322.628 632.265C 302.388 644.024 304.652 643.162 282.972 651.291C 273.764 654.744 264.044 657.135 254.383 658.503C 244.514 659.901 239.501 658.735 233.98 659.551C 234.613 661.211 240.224 665.469 247.227 667.181z"/>
<path style="stroke:none; fill:white" d="M 284.332 613.7C 288.118 616.042 292.33 617.64 296.442 619.346C 297.583 619.819 299.164 620.119 300.219 619.652C 307.047 616.629 313.793 613.393 320.549 610.185C 325.01 608.068 329.778 606.413 333.756 603.523C 335.987 601.903 337.578 598.321 338.106 595.363C 338.387 593.792 326.77 593.285 325.482 595.21C 318.055 606.314 307.152 608.9 295.477 608.968C 292.188 608.987 288.906 607.195 284.475 605.898C 283.757 606.356 281.213 607.648 281.314 607.969C 281.97 610.051 282.757 612.726 284.332 613.7z"/>
<path style="stroke:none; fill:white" d="M 369.666 584.057C 370.237 584.408 370.809 584.759 371.381 585.11C 372.808 584.029 379.248 578.656 385.57 568.731C 390.001 561.725 389.604 557.996 386.252 554.79C 383.737 552.385 377.323 550.847 378.209 554.654C 379.674 556.796 381.386 559.957 379.367 565.871C 377.118 572.529 373.983 579.468 369.666 584.057z"/>
<path style="stroke:none; fill:white" d="M 335.076 711.483C 335.076 714.005 336.077 713.546 337.058 713.262C 353.535 692.998 365.395 671.38 368.437 660.98C 366.474 658.885 365.009 655.946 363.132 655.631C 360.152 655.132 359.136 657.829 359.674 661.011C 359.859 662.102 359.504 663.389 359.164 664.479C 351.756 688.256 335.076 708.961 335.076 711.483z"/>
<path style="stroke:none; fill:white" d="M 228.164 738.61C 221.807 734.697 213.421 733.213 202.195 733.213C 190.968 733.213 182.583 733.348 175.414 734.292C 174.332 734.832 174.197 736.855 175.143 737.665L 180.012 738.205C 186.099 738.879 186.37 741.173 186.37 752.639L 186.37 802.418C 186.37 816.582 186.099 818.201 178.254 819.28L 175.414 819.685C 174.602 820.495 174.873 822.653 175.684 823.058C 181.635 822.787 186.505 822.653 192.186 822.653C 197.596 822.653 202.059 822.787 209.769 823.058C 210.58 822.653 210.851 820.359 210.04 819.685L 206.387 819.28C 197.731 818.336 197.461 816.582 197.461 802.418L 197.461 742.251C 197.461 737.935 197.596 737.396 204.764 737.396C 218.831 737.396 226.541 745.894 226.541 758.979C 226.541 770.716 221.266 778.945 206.658 781.643C 205.846 781.913 205.846 783.936 206.793 784.341C 212.339 784.341 219.508 783.127 225.459 780.294C 231.275 777.461 238.984 771.255 238.984 758.845C 238.984 749.536 234.386 742.521 228.164 738.61z"/>
<path style="stroke:none; fill:white" d="M 269.551 819.28C 264.682 818.606 264.412 817.257 264.412 807.544L 264.412 743.735C 264.412 737.8 264.682 731.055 264.817 727.007C 264.547 726.468 264.006 726.198 263.465 726.198C 258.596 728.762 252.238 730.785 248.857 731.864C 248.181 732.269 248.181 734.158 248.857 734.563L 250.21 735.372C 254.268 737.8 254.403 738.61 254.403 746.568L 254.403 807.544C 254.403 817.257 254.268 818.606 249.263 819.28L 246.152 819.685C 245.205 820.359 245.476 822.653 246.423 823.058C 250.48 822.787 254.538 822.653 259.407 822.653C 264.141 822.653 268.064 822.787 272.527 823.058C 273.474 822.653 273.745 820.359 272.798 819.685L 269.551 819.28z"/>
<path style="stroke:none; fill:white" d="M 337.855 817.662C 334.069 817.662 333.663 813.615 333.663 802.957L 333.663 780.294C 333.663 775.303 333.798 771.121 334.069 768.557C 333.934 768.018 333.528 767.748 332.851 767.613C 329.876 768.962 322.437 769.907 317.026 770.041C 315.944 770.581 315.944 772.47 316.891 773.009L 318.649 773.684C 322.707 775.303 323.654 775.572 323.654 784.341L 323.654 806.465C 323.654 810.647 322.707 812.67 320.948 814.289C 317.973 816.852 313.644 818.336 309.992 818.336C 299.714 818.336 297.414 812.13 297.414 802.822L 297.414 780.294C 297.414 773.684 297.549 770.851 297.819 768.557C 297.685 768.018 297.279 767.748 296.467 767.613C 293.491 768.692 288.217 769.907 281.995 770.041C 281.047 770.446 280.913 772.335 281.724 773.009L 283.347 773.684C 287.405 775.437 287.405 776.651 287.405 785.15L 287.405 807.679C 287.405 818.606 291.868 824.542 303.771 824.542C 311.751 824.542 318.379 820.09 322.437 817.527C 323.248 817.527 323.654 818.201 323.654 819.415L 323.654 824.946C 323.924 825.486 324.6 825.891 325.277 825.891C 329.876 823.328 337.72 821.978 342.996 820.899C 344.077 820.359 343.942 817.662 343.131 816.987C 341.237 817.391 339.479 817.662 337.855 817.662z"/>
<path style="stroke:none; fill:white" d="M 370.991 790.951C 366.258 788.253 360.577 785.285 360.577 779.754C 360.577 774.898 363.958 771.526 369.233 771.526C 374.779 771.526 378.836 775.437 381.136 781.373C 381.813 782.183 383.841 781.913 384.382 780.969C 384.382 777.326 383.436 773.009 382.218 770.041C 381.001 768.962 375.997 767.613 370.316 767.613C 360.036 767.613 351.92 773.144 351.92 782.992C 351.92 790.412 357.466 795.133 365.311 799.585C 370.316 802.418 375.726 805.79 375.726 811.996C 375.726 817.796 371.533 820.629 366.664 820.629C 358.954 820.629 354.626 814.154 352.326 806.734C 351.65 805.925 349.891 806.06 349.216 806.87C 348.945 811.321 349.756 817.932 350.839 820.495C 354.22 823.192 358.954 824.542 365.311 824.542C 375.32 824.542 384.788 819.415 384.788 809.162C 384.788 799.585 378.16 794.998 370.991 790.951z"/>
<path style="stroke:none; fill:white" d="M 158.866 700.564C 163.404 698.693 179.042 694.902 195.809 695.581C 207.433 696.053 223.111 696.41 227.313 698.896C 235.011 703.45 252.16 698.917 251.974 697.228C 251.779 695.451 246.84 686.483 237.81 684.756C 223.439 682.007 205.241 682.422 182.888 685.716C 182.385 683.042 181.704 678.948 181.159 673.967C 187.227 672.917 194.085 672.087 201.058 671.89C 201.249 668.612 197.581 663.988 192.06 663.426C 192.206 663.256 187.05 664.803 180.54 666.828C 180.326 663.471 180.211 659.893 180.259 656.199C 187.576 654.644 195.117 653.319 200.371 652.832C 200.384 652.81 200.399 652.789 200.412 652.767C 203.036 648.299 200.83 645.566 195.645 645.891C 194.641 645.954 188.103 647.567 180.531 649.519C 180.683 647.355 180.9 645.177 181.198 643.004C 181.718 638.646 182.075 636.471 183.221 634.083C 183.225 634.075 183.226 634.069 183.229 634.061C 202.239 626.742 214.523 624.369 222.426 623.86C 223.813 623.771 221.619 617.513 221.056 616.356C 220.508 615.229 217.778 614.3 216.325 614.64C 212.802 615.464 201.253 621.039 197.581 622.433C 203.375 615.498 208.657 607.481 201.343 605.647C 196.627 604.464 193.22 604.435 187.897 603.716C 187.067 606.654 188.46 607.786 188.614 608.344C 191.094 617.325 189.538 626.512 179.196 629.035C 173.682 630.381 168.277 632.251 162.707 633.248C 160.352 633.67 150.975 635.159 149.732 633.65C 147.307 630.706 152.587 625.504 156.384 622.003C 165.122 613.945 173.026 604.99 181.684 596.838C 188.756 590.178 214.963 570.018 215.44 565.599C 215.917 561.181 214.333 558.912 209.234 556.817C 205.533 555.297 200.153 554.464 195.818 554.139C 199.626 560.297 199.351 567.687 196.764 570.63C 187.67 580.974 181.359 588.306 169.953 598.502C 168.841 599.744 167.12 600.444 164.696 602.045C 164.419 598.713 164.108 596.691 164.106 594.668C 164.093 583.568 164.229 572.468 164.173 561.368C 164.117 550.013 166.977 545.205 148.233 542.893C 146.602 542.692 144.109 545.387 145.071 546.777C 147.066 549.658 148.984 550.453 150.4 553.566C 158.19 570.691 156.846 595.42 154.112 607.891C 151.653 619.111 142.813 624.382 132.419 625.968C 128.122 626.623 128.006 627.175 130.044 628.914C 133.442 631.814 137.804 630.25 130.079 636.642C 116.376 647.981 81.2299 688.103 28.5405 731.726C 23.1565 739.09 32.665 750.362 44.934 740.518C 106.382 705.235 51.1707 731.136 49.1235 725.86C 55.5164 719.657 61.9433 713.416 68.3757 707.181C 76.0305 699.761 83.7428 692.4 91.335 684.917C 102.525 673.887 113.618 662.759 124.782 651.703C 128.501 648.02 132.071 644.126 136.16 640.896C 139.249 638.457 143.17 637.758 144.548 642.879C 145.789 647.495 146.861 652.341 146.833 657.078C 146.735 673.981 146.4 690.893 145.583 707.774C 145.299 713.64 143.35 719.424 142.175 725.249C 141.885 726.683 141.336 728.153 141.443 729.566C 141.961 736.39 146.35 749.079 146.829 750.184C 150.55 758.771 156.764 741.598 156.548 738.274C 155.875 727.886 153.914 718.907 153.617 708.498C 153.495 704.204 154.714 702.275 158.866 700.564zM 156.787 645.479C 158.279 643.125 165.452 640.841 170.794 639.156C 171.39 638.898 171.975 638.648 172.561 638.399C 172.633 638.635 172.7 638.879 172.759 639.133C 173.246 643.368 173.561 647.422 173.754 651.284C 165.906 653.346 158.339 655.396 155.643 656.197C 155.186 651.857 155.62 647.319 156.787 645.479zM 157.366 662.678C 158.652 661.604 165.624 659.567 173.967 657.606C 174.04 661.647 173.989 665.43 173.87 668.919C 166.284 671.315 158.614 673.799 155.919 674.782C 155.137 673.968 154.64 664.955 157.366 662.678zM 155.969 680.557C 155.969 680.557 159.908 679.278 163.569 678.11C 165.978 677.341 169.432 676.395 173.561 675.472C 173.281 680.208 172.939 684.204 172.743 687.353C 166.925 688.374 160.863 689.559 154.525 690.924C 154.879 687.877 154.319 683.065 155.969 680.557z"/>
<path style="stroke:none; fill:white" d="M 117.969 602.875C 121.412 605.861 127.056 607.156 126.459 603.221C 125.862 599.286 125.24 594.413 118.091 591.696C 106.313 587.218 88.6204 585.654 88.6595 588.29C 88.7119 591.816 108.671 594.812 117.969 602.875z"/>
<path style="stroke:none; fill:white" d="M 211.594 590.316C 211.723 592.7 218.165 599.512 224.147 601.908C 226.712 602.936 230.897 604.183 230.491 601.506C 230.084 598.828 229.639 595.516 226.068 593.471C 220.185 590.102 211.498 588.532 211.594 590.316z"/>
</g>
</svg>